<svg xmlns="http://www.w3.org/2000/svg" viewBox="0 0 2500 2500"><defs><style>.cls-1{fill:#fff;}.cls-2{fill:#303847;}</style></defs><g id="Capa_2" data-name="Capa 2"><g id="Capa_1-2" data-name="Capa 1"><circle class="cls-1" cx="1250" cy="1250" r="1250"/><g id="Capa_2-2" data-name="Capa 2"><g id="Capa_1-2-2" data-name="Capa 1-2"><path class="cls-2" d="M966.91,1250c0-156.38,126.74-283.19,283.12-283.19s283.19,126.81,283.19,283.19-126.8,283.19-283.19,283.19S966.91,1406.38,966.91,1250m-153.08,0c0,240.92,195.29,436.21,436.2,436.21s436.21-195.29,436.21-436.21S1491,813.79,1250,813.79,813.83,1009.08,813.83,1250m787.74-453.5a101.94,101.94,0,1,0,102-101.9h0a102,102,0,0,0-101.94,101.9m-694.73,1145C824,1937.69,779,1923.9,749.08,1912.25c-39.66-15.43-68-33.82-97.71-63.54s-48.17-58-63.54-97.64c-11.67-29.9-25.46-74.93-29.22-157.76-4.12-89.55-4.94-116.45-4.94-343.3s.9-253.68,4.94-343.3C562.39,823.89,576.28,779,587.83,749c15.44-39.66,33.83-68,63.54-97.71s58-48.17,97.71-63.55C779,576,824,562.24,906.84,558.48c89.55-4.12,116.45-4.94,343.23-4.94s253.68.89,343.3,4.94c82.82,3.77,127.76,17.64,157.75,29.22,39.66,15.38,68,33.83,97.72,63.55s48.1,58,63.54,97.71c11.66,29.9,25.46,74.93,29.22,157.75,4.12,89.62,4.94,116.45,4.94,343.3s-.82,253.68-4.94,343.3c-3.77,82.83-17.67,127.84-29.22,157.76-15.44,39.66-33.83,68-63.54,97.64s-58.06,48.11-97.72,63.54c-29.9,11.67-74.93,25.46-157.75,29.22-89.55,4.12-116.45,4.94-343.3,4.94s-253.68-.82-343.2-4.94M899.8,405.64c-90.43,4.12-152.19,18.46-206.2,39.46-55.85,21.69-103.2,50.78-150.48,98s-76.3,94.59-98,150.48c-21,54-35.34,115.76-39.46,206.2s-5.15,119.53-5.15,350.23,1,259.65,5.15,350.23,18.46,152.23,39.46,206.2c21.68,55.86,50.71,103.3,98,150.48s94.59,76.23,150.48,98c54.07,21,115.77,35.34,206.2,39.46,90.63,4.11,119.54,5.14,350.23,5.14s259.66-1,350.24-5.14,152.23-18.46,206.19-39.46c55.86-21.75,103.21-50.78,150.49-98s76.23-94.62,98-150.48c21-54,35.41-115.76,39.46-206.2,4.12-90.64,5.08-119.53,5.08-350.23s-1-259.65-5.08-350.23-18.46-152.2-39.46-206.2c-21.75-55.86-50.78-103.2-98-150.48s-94.6-76.3-150.42-98c-54.07-21-115.83-35.41-206.2-39.46-90.57-4.11-119.53-5.14-350.23-5.14s-259.67,1-350.3,5.14"/></g></g></g></g></svg>