<svg xmlns="http://www.w3.org/2000/svg" viewBox="0 0 2500 2500"><defs><style>.cls-1{fill:#fff;}.cls-2{fill:#414141;fill-rule:evenodd;}</style></defs><g id="Capa_2" data-name="Capa 2"><g id="Capa_1-2" data-name="Capa 1"><circle class="cls-1" cx="1250" cy="1250" r="1250"/><g id="Capa_2-2" data-name="Capa 2"><g id="Capa_1-2-2" data-name="Capa 1-2"><path class="cls-2" d="M1848.38,648.3c-158.77-158.9-369.91-246.45-594.85-246.54-463.5,0-840.74,377.09-840.92,840.59a839,839,0,0,0,112.25,420.27l-119.3,435.62,445.78-116.9a840.54,840.54,0,0,0,401.85,102.32h.35c463.48,0,840.71-377.13,840.9-840.64.09-224.61-87.29-435.83-246.06-594.72M1253.54,1941.69h-.29a698,698,0,0,1-355.71-97.4L872,1829.15l-264.56,69.36,70.61-257.83-16.62-26.46a697,697,0,0,1-106.86-371.87c.15-385.19,313.69-698.61,699.21-698.61,186.68.07,362.17,72.84,494.13,204.94S1952.52,1056.3,1952.45,1243c-.16,385.27-313.7,698.71-698.95,698.71m383.41-523.3c-21-10.51-124.32-61.33-143.58-68.34s-33.25-10.51-47.28,10.52-54.28,68.34-66.5,82.36-24.51,15.77-45.52,5.25-88.72-32.69-169-104.25c-62.48-55.72-104.66-124.49-116.88-145.52s-1.3-32.4,9.22-42.87c9.45-9.41,21-24.54,31.52-36.8s14-21,21-35,3.5-26.29-1.75-36.81-47.28-113.9-64.79-156c-17.05-41-34.38-35.42-47.28-36.06-12.21-.61-26.26-.74-40.26-.74s-36.78,5.26-56,26.29-73.6,71.83-73.6,175.22S901.53,1258.93,912,1273,1060.2,1499.13,1271,1590.12c50.13,21.64,89.27,34.56,119.78,44.25,50.33,16,96.14,13.72,132.32,8.32,40.37-6,124.31-50.82,141.83-99.89s17.5-91.12,12.25-99.88-19.26-14-40.27-24.53"/></g></g></g></g></svg>