<svg xmlns="http://www.w3.org/2000/svg" fill="#FFF" width="100" height="100" viewBox="-8 0 115 115">
	<path d= "M45.39,21.32l2-1.15,2,1.16L74.45,35.89l0,0,17.93-9.85L47.64,0,2.07,26.08,19.89,36l.14-.08Zm31,47.22v2.34l-2,1.15L49.15,86.28l-.07,0,0,21.23L94.41,82l.06-52.48-18,9.9ZM20.13,71.92l-2-1.15V68.46l-.1-29-18-10L.12,81.72l45,25.79,0-21.31ZM18,39.5l-18-10H0l18,10ZM45.1,86.2h0v21.32h0Zm4,21.33,0-21.23h0Zm23.29-68.2-2-1.17h0l-23-13.36L24,38.23l-2,1.12v2.38l.09,26.73L45.07,81.59l2,1.15.11.06,1.88-1.06L72.44,68.55v-27h0V39.35ZM44.05,73.6,28.66,64.77,28.72,47l15.39,8.72ZM32,41.19l15.4-8.85,15.46,8.89L47.38,50ZM50.62,73.6l-.1-17.78,15.54-9,0,17.86Z">
	</path>
</svg>
