<svg xmlns="http://www.w3.org/2000/svg" width="100" height="100" viewBox="-8 0 115 115" fill="#FFF">
	<path d= "M38.52,62.53l-5.82-3.3-7.29-4.13v8.35l-8.32,4.8,0,8,5.83,3.34L32.73,74l6.63,3.86,0-7.65,0-7.19ZM56.09,30.79l0-7.73-6.29-3.62-6.57,3.78,0,7.91-8.87,5,8.93,5.12L49.84,45l.25-.14,6-3.39,9.35-5.32ZM82.58,68.35l-8-4.52,0-9-7.82,4.51-5.3,3.06L60,63.27l0,7.14,0,7.63,6.63-3.8,9.59,5.5,6.26-3.6ZM49.85,0,42.06,4.47,49.92,0Zm.07,0L42.06,4.47.33,28.41,0,28.6.2,85.8,49.45,114l.07,0,7.9-4.45L99.1,86V28.6ZM13.07,70.55l.1-27L25.41,50.5,36.72,56.9l5.93,3.36.79.44,0,7.23,0,12.25L43.3,95.54v.39L13,78.58Zm36.76-21-6.44-3.69-13-7.46L19.56,32.23l23.67-13.6,6.6-3.79,6.31,3.63L80.22,32.31,69.44,38.44,56,46.06,50.1,49.44Zm6.37,46.34v-.55l-.09-15.06L56,68.11,56,61l1.37-.79,5.35-3.09,11.84-6.83,11.8-6.81.18-.1.05,35.1Z">
	</path>
</svg>
