<?xml version="1.0" encoding="UTF-8"?>
<svg id="Capa_2" xmlns="http://www.w3.org/2000/svg" viewBox="0 0 445.12 512.01">
    <defs>
        <style>
            .cls-1{fill:none;stroke:#fff;stroke-miterlimit:10;stroke-width:3px;}.cls-2{fill:#fff;}
        </style>
    </defs>
    <g id="Capa_1-2"><g>
        <polygon class="cls-2" points=".21 213.59 .21 382.13 148.91 468.62 148.91 384.59 74.56 341.11 74.56 256.19 .21 213.59"/>
        <polygon class="cls-2" points="74.56 170.18 222.55 256.25 222.55 425.14 148.91 384.59 148.91 297.66 74.56 256.19 74.56 170.18"/>
        <polygon class="cls-2" points="369.77 170.18 369.77 255.88 294.95 297.66 294.95 382.75 222.55 425.14 222.55 256.25 369.77 170.18"/>
        <polygon class="cls-2" points="369.77 255.88 369.77 341.11 294.95 382.75 296.16 468.76 443.61 382.94 443.61 213.59 369.77 255.88"/>
        <polygon class="cls-2" points="74.56 84.78 148.56 127.48 222.55 84.78 294.95 127.48 369.28 84.78 221.92 0 74.56 84.78"/>
        <polygon class="cls-2" points="369.28 170.68 295.28 127.98 221.28 170.68 148.89 127.98 74.56 170.68 222.55 256.25 369.28 170.68"/>
        <polyline class="cls-1" points="1.5 220.06 2.79 127.98 77.14 84.78"/>
        <polyline class="cls-1" points="366.05 84.32 443.61 127.98 442.32 216.18"/>
        <polyline class="cls-1" points="146.28 465.67 221.92 510.28 298.82 465.67"/>
    </g></g>
</svg>